<svg xmlns:mydata="http://www.w3.org/2000/svg" mydata:contrastcolor="2D2926" mydata:template="SingleColorHex1" mydata:presentation="2.5" mydata:layouttype="undefined" mydata:specialfontid="undefined" mydata:id1="228" mydata:id2="227" mydata:companyname="Fitness Partner" mydata:companytagline="" version="1.1" xmlns="http://www.w3.org/2000/svg" xmlns:xlink="http://www.w3.org/1999/xlink" viewBox="0 35 550 400"><g fill="#d14124" fill-rule="none" stroke="none" stroke-width="1" stroke-linecap="butt" stroke-linejoin="miter" stroke-miterlimit="10" stroke-dasharray="" stroke-dashoffset="0" font-family="none" font-weight="none" font-size="none" text-anchor="none" style="mix-blend-mode: normal"><g data-paper-data="{&quot;isGlobalGroup&quot;:true,&quot;bounds&quot;:{&quot;x&quot;:169.5010425680082,&quot;y&quot;:114.99999999999997,&quot;width&quot;:210.99791486398362,&quot;height&quot;:240.00000000000003}}"><g data-paper-data="{&quot;stacked&quot;:true,&quot;isPrimaryText&quot;:true}" fill-rule="nonzero"><path d="M169.50104,309.54247h14.68766l2.16606,-14.42061h12.58095l1.69131,-11.30505h-12.58095l0.41541,-2.84852h13.20406l1.72098,-11.60177h-27.89172z" data-paper-data="{&quot;glyphName&quot;:&quot;F&quot;,&quot;glyphIndex&quot;:0,&quot;firstGlyphOfWord&quot;:true,&quot;word&quot;:1,&quot;line&quot;:1,&quot;firstGlyphOfFirstLine&quot;:true}"></path><path d="M220.74466,269.36652h-14.71733l-5.99375,40.17595h14.68766z" data-paper-data="{&quot;glyphName&quot;:&quot;I&quot;,&quot;glyphIndex&quot;:1,&quot;word&quot;:1,&quot;line&quot;:1}"></path><path d="M225.28449,309.54247h14.71733l4.27277,-28.57418h8.13014l1.75065,-11.60177h-31.00729l-1.72098,11.60177h8.13014z" data-paper-data="{&quot;glyphName&quot;:&quot;T&quot;,&quot;glyphIndex&quot;:2,&quot;word&quot;:1,&quot;line&quot;:1}"></path><path d="M270.65305,309.54247h14.06455l6.02343,-40.17595h-14.09422l-2.49245,16.58667l-3.53097,-16.58667h-14.09422l-5.99375,40.17595h14.09422l2.46278,-16.58667z" data-paper-data="{&quot;glyphName&quot;:&quot;N&quot;,&quot;glyphIndex&quot;:3,&quot;word&quot;:1,&quot;line&quot;:1}"></path><path d="M288.39693,309.54247h28.1291l1.78032,-11.89849h-13.44144l0.44508,-2.81884h12.25455l1.60229,-10.71161h-12.28423l0.44508,-2.81884h12.848l1.78032,-11.92816h-27.56533z" data-paper-data="{&quot;glyphName&quot;:&quot;E&quot;,&quot;glyphIndex&quot;:4,&quot;word&quot;:1,&quot;line&quot;:1}"></path><path d="M349.19495,294.26137c0,-5.34097 -2.43311,-7.62572 -7.35867,-9.25768l-3.20458,-1.06819c-1.54295,-0.50442 -2.37376,-0.97918 -2.37376,-1.66163c0,-1.12754 1.60229,-1.54295 4.00573,-1.54295c2.46278,0 6.0531,0.7418 8.13014,1.21655l3.2936,-11.72046c-1.24623,-0.32639 -5.90474,-1.45393 -11.83915,-1.45393c-10.5039,0 -16.26028,5.57834 -17.68454,14.21291c-0.7418,4.42113 -0.08902,8.18948 4.06507,10.14784c1.51327,0.71213 3.47163,1.45393 5.16294,1.89901c2.46278,0.65278 3.20458,0.97918 3.20458,1.75065c0,1.15721 -1.45393,1.39459 -3.67933,1.39459c-3.61999,0 -7.26965,-0.91983 -9.34669,-1.51327l-3.41229,11.54243c2.37376,0.80115 7.86309,1.92868 13.85685,1.92868c13.70848,0 17.18011,-7.09162 17.18011,-15.87454z" data-paper-data="{&quot;glyphName&quot;:&quot;S&quot;,&quot;glyphIndex&quot;:5,&quot;word&quot;:1,&quot;line&quot;:1}"></path><path d="M378.00651,294.26137c0,-5.34097 -2.43311,-7.62572 -7.35867,-9.25768l-3.20458,-1.06819c-1.54295,-0.50442 -2.37376,-0.97918 -2.37376,-1.66163c0,-1.12754 1.60229,-1.54295 4.00573,-1.54295c2.46278,0 6.0531,0.7418 8.13014,1.21655l3.2936,-11.72046c-1.24623,-0.32639 -5.90474,-1.45393 -11.83915,-1.45393c-10.5039,0 -16.26028,5.57834 -17.68454,14.21291c-0.7418,4.42113 -0.08902,8.18948 4.06507,10.14784c1.51327,0.71213 3.47163,1.45393 5.16294,1.89901c2.46278,0.65278 3.20458,0.97918 3.20458,1.75065c0,1.15721 -1.45393,1.39459 -3.67933,1.39459c-3.61999,0 -7.26965,-0.91983 -9.34669,-1.51327l-3.41229,11.54243c2.37376,0.80115 7.86309,1.92868 13.85685,1.92868c13.70848,0 17.18011,-7.09162 17.18011,-15.87454z" data-paper-data="{&quot;glyphName&quot;:&quot;S&quot;,&quot;glyphIndex&quot;:6,&quot;lastGlyphOfWord&quot;:true,&quot;word&quot;:1,&quot;line&quot;:1,&quot;lastGlyphOfFirstLine&quot;:true}"></path><path d="M180.93645,342.52983c5.78404,0 11.46194,-3.52879 11.46194,-10.55985v-2.41444c0,-6.97799 -5.67791,-10.48025 -11.46194,-10.48025h-11.43541v35.9247h4.72274v-12.47017zM180.53847,323.10821c4.2717,0 7.19025,2.25524 7.19025,6.81879v1.67153c0,4.61662 -2.91855,6.89839 -7.19025,6.89839h-6.31468v-15.38872z" data-paper-data="{&quot;glyphName&quot;:&quot;P&quot;,&quot;glyphIndex&quot;:7,&quot;firstGlyphOfWord&quot;:true,&quot;word&quot;:2,&quot;fontStyleEffect&quot;:true,&quot;line&quot;:2,&quot;firstGlyphOfSecondLine&quot;:true}"></path><path d="M224.88319,355l-11.30275,-35.9247h-6.87186l-11.30275,35.9247h5.0146l2.70629,-8.88831h14.03557l2.70629,8.88831zM210.13125,322.84288l5.81057,19.1563h-11.56807z" data-paper-data="{&quot;glyphName&quot;:&quot;A&quot;,&quot;glyphIndex&quot;:8,&quot;word&quot;:2,&quot;fontStyleEffect&quot;:true,&quot;line&quot;:2}"></path><path d="M234.25306,319.0753v35.9247h4.72274v-13.02735h6.55347l6.7392,13.02735h5.22686l-7.32291,-13.69065c4.03291,-1.30008 7.24331,-4.59008 7.24331,-9.87001v-1.88379c0,-6.97799 -5.67791,-10.48025 -11.46194,-10.48025zM245.55581,323.10821c4.2717,0 7.19025,2.25524 7.19025,6.81879v1.14089c0,4.61662 -2.91855,6.89839 -7.19025,6.89839h-6.58v-14.85807z" data-paper-data="{&quot;glyphName&quot;:&quot;R&quot;,&quot;glyphIndex&quot;:9,&quot;word&quot;:2,&quot;fontStyleEffect&quot;:true,&quot;line&quot;:2}"></path><path d="M276.82012,355h4.74928v-31.67954h10.29452v-4.24516h-25.33832v4.24516h10.29452z" data-paper-data="{&quot;glyphName&quot;:&quot;T&quot;,&quot;glyphIndex&quot;:10,&quot;word&quot;:2,&quot;fontStyleEffect&quot;:true,&quot;line&quot;:2}"></path><path d="M316.53894,355h4.98807v-35.9247h-4.72274v27.67316l-16.21122,-27.67316h-4.98807v35.9247h4.72274v-27.67316z" data-paper-data="{&quot;glyphName&quot;:&quot;N&quot;,&quot;glyphIndex&quot;:11,&quot;word&quot;:2,&quot;fontStyleEffect&quot;:true,&quot;line&quot;:2}"></path><path d="M328.99584,355h20.90743v-4.24516h-16.15816v-11.7538h15.07033v-4.24516h-15.07033v-11.43541h15.60098v-4.24516h-20.35025z" data-paper-data="{&quot;glyphName&quot;:&quot;E&quot;,&quot;glyphIndex&quot;:12,&quot;word&quot;:2,&quot;fontStyleEffect&quot;:true,&quot;line&quot;:2}"></path><path d="M357.25668,319.0753v35.9247h4.72274v-13.02735h6.55347l6.7392,13.02735h5.22686l-7.32291,-13.69065c4.03291,-1.30008 7.24331,-4.59008 7.24331,-9.87001v-1.88379c0,-6.97799 -5.67791,-10.48025 -11.46194,-10.48025zM368.55943,323.10821c4.2717,0 7.19025,2.25524 7.19025,6.81879v1.14089c0,4.61662 -2.91855,6.89839 -7.19025,6.89839h-6.58v-14.85807z" data-paper-data="{&quot;glyphName&quot;:&quot;R&quot;,&quot;glyphIndex&quot;:13,&quot;lastGlyphOfWord&quot;:true,&quot;word&quot;:2,&quot;fontStyleEffect&quot;:true,&quot;line&quot;:2,&quot;lastGlyphOfSecondLine&quot;:true}"></path></g><g data-paper-data="{&quot;isIcon&quot;:&quot;true&quot;,&quot;iconType&quot;:&quot;icon&quot;,&quot;rawIconId&quot;:&quot;2510104&quot;,&quot;selectedEffects&quot;:{&quot;container&quot;:&quot;&quot;,&quot;transformation&quot;:&quot;&quot;,&quot;pattern&quot;:&quot;&quot;},&quot;isDetailed&quot;:true,&quot;iconStyle&quot;:&quot;standalone&quot;,&quot;bounds&quot;:{&quot;x&quot;:219.5354346904914,&quot;y&quot;:114.99999999999997,&quot;width&quot;:110.92913061901726,&quot;height&quot;:128.32057067813813},&quot;fillRule&quot;:&quot;evenodd&quot;,&quot;suitableAsStandaloneIcon&quot;:true}" fill-rule="evenodd"><path d="M275,115c15.04124,0 29.1424,6.58054 39.01321,16.45136c9.87082,9.87082 16.45136,23.97198 16.45136,39.01321c0,10.34085 -2.82023,19.27159 -7.52062,27.73228l7.05058,17.39143l-71.44588,-25.38209l44.65368,7.52062l-13.63112,-27.73228l22.56186,1.41011l8.46069,20.6817c3.29027,-6.58054 4.70039,-13.63112 4.70039,-21.62178c0,-13.63112 -5.64047,-26.32217 -14.5712,-35.72294c-9.40077,-8.93073 -22.09182,-14.5712 -35.72294,-14.5712c-14.10116,0 -26.7922,5.64047 -35.72294,14.5712c-9.40077,9.40077 -15.04124,22.09182 -15.04124,35.72294c0,14.10116 5.64047,26.7922 15.04124,36.19298c8.93073,8.93073 21.62178,14.5712 35.72294,14.5712c7.52062,0 14.5712,-1.88015 21.15174,-4.70039l-39.01321,-21.62178l71.91592,24.91205l-41.83345,23.50194l-18.33151,-13.16108l8.93073,-4.23035h-2.82023c-15.51127,0 -29.1424,-6.1105 -39.48325,-15.98131c-9.87082,-9.87082 -15.98131,-23.97198 -15.98131,-39.48325c0,-15.04124 6.1105,-29.1424 15.98131,-39.01321c10.34085,-9.87082 23.97198,-16.45136 39.48325,-16.45136zM266.5393,122.99066c2.82023,-0.47004 5.64047,-0.94008 8.46069,-0.94008c13.16108,0 25.38209,5.64047 34.31282,14.10116c8.46069,8.93073 14.10116,21.15174 14.10116,34.31282c0,6.1105 -0.94008,11.75097 -2.82023,16.9214l-7.05058,-17.86147h-5.17043c0.47004,-1.88015 0.47004,-4.23035 0.47004,-6.1105c0,-11.28093 -4.70039,-21.15174 -11.75097,-28.67236c-7.52062,-7.52062 -17.86147,-11.75097 -29.1424,-11.75097zM267.94942,204.30735h2.35019l21.62178,11.75097c-5.17043,1.88015 -10.81089,3.29027 -16.9214,3.29027c-13.63112,0 -25.85213,-5.64047 -34.31282,-14.10116c-8.93073,-8.93073 -14.5712,-21.15174 -14.5712,-34.78286c0,-3.76031 0.47004,-7.52062 1.41011,-11.28093v4.23035c0,11.28093 4.70039,21.62178 11.75097,28.67236c7.52062,7.52062 17.86147,12.22101 28.67236,12.22101zM295.21166,199.60696l29.1424,10.34085l-14.10116,-35.72294l-15.04124,-0.94008l14.10116,28.67236zM291.45135,210.41786l12.69104,6.58054l-28.67236,13.63112l12.22101,8.93073l33.37275,-18.80155z" data-paper-data="{&quot;isPathIcon&quot;:true}"></path></g></g></g></svg>